<?xml version="1.0" encoding="UTF-8" standalone="no"?>
<!-- Created with Inkscape (http://www.inkscape.org/) -->

<svg
   width="112.94154mm"
   height="204.85898mm"
   viewBox="0 0 112.94154 204.85898"
   version="1.1"
   id="svg1"
   xml:space="preserve"
   inkscape:version="1.3.2 (091e20e, 2023-11-25)"
   sodipodi:docname="noMus.svg"
   inkscape:export-filename="genghis.png"
   inkscape:export-xdpi="72.571426"
   inkscape:export-ydpi="72.571426"
   xmlns:inkscape="http://www.inkscape.org/namespaces/inkscape"
   xmlns:sodipodi="http://sodipodi.sourceforge.net/DTD/sodipodi-0.dtd"
   xmlns="http://www.w3.org/2000/svg"
   xmlns:svg="http://www.w3.org/2000/svg"><sodipodi:namedview
     id="namedview1"
     pagecolor="#ffffff"
     bordercolor="#000000"
     borderopacity="0.25"
     inkscape:showpageshadow="2"
     inkscape:pageopacity="0.0"
     inkscape:pagecheckerboard="0"
     inkscape:deskcolor="#d1d1d1"
     inkscape:document-units="mm"
     inkscape:zoom="0.44184662"
     inkscape:cx="-259.1397"
     inkscape:cy="647.28344"
     inkscape:window-width="1440"
     inkscape:window-height="847"
     inkscape:window-x="0"
     inkscape:window-y="25"
     inkscape:window-maximized="0"
     inkscape:current-layer="g11"
     showgrid="true"><inkscape:grid
       id="grid23"
       units="mm"
       originx="-55.775384"
       originy="-15.284306"
       spacingx="0.99999998"
       spacingy="1"
       empcolor="#0099e5"
       empopacity="0.30196078"
       color="#0099e5"
       opacity="0.14901961"
       empspacing="5"
       dotted="false"
       gridanglex="30"
       gridanglez="30"
       visible="true" /></sodipodi:namedview><defs
     id="defs1" /><g
     inkscape:label="Layer 1"
     inkscape:groupmode="layer"
     id="layer1"
     transform="translate(-55.775384,-15.284306)"><g
       id="g11"
       transform="translate(2.1558698,-4.8507102)"><ellipse
         style="fill:#f1c67d;fill-opacity:1;stroke:#000000;stroke-width:1.85208;stroke-dasharray:none;stroke-opacity:1"
         id="path31"
         cx="147.1797"
         cy="129.12856"
         rx="9.6408138"
         ry="10.207921"
         inkscape:label="path31" /><ellipse
         style="fill:#ce4400;fill-opacity:1;stroke:#000000;stroke-width:0;stroke-dasharray:none;stroke-opacity:1"
         id="path32"
         cx="147.57481"
         cy="128.70622"
         rx="3.5292482"
         ry="3.7199309"
         inkscape:label="path32" /><ellipse
         style="fill:#f1c67d;fill-opacity:1;stroke:#000000;stroke-width:1.85208;stroke-dasharray:none;stroke-opacity:1"
         id="ellipse32"
         cx="-73.329414"
         cy="129.35738"
         rx="9.6408138"
         ry="10.207921"
         inkscape:label="path31"
         transform="scale(-1,1)" /><ellipse
         style="fill:#ce4400;fill-opacity:1;stroke:#000000;stroke-width:0;stroke-dasharray:none;stroke-opacity:1"
         id="ellipse33"
         cx="-72.934303"
         cy="128.93504"
         rx="3.5292482"
         ry="3.7199309"
         inkscape:label="path32"
         transform="scale(-1,1)" /><path
         style="fill:#f1c67d;fill-opacity:1;stroke:#000000;stroke-width:1.85208;stroke-dasharray:none;stroke-opacity:1"
         d="m 85.302462,155.25156 c 16.912978,13.2424 32.876638,13.80252 49.649658,-0.27686 16.77302,-14.07938 12.7351,-65.163567 12.7351,-65.163567 H 72.567361 c 0,0 -4.17788,52.198027 12.735101,65.440427 z"
         id="path27"
         sodipodi:nodetypes="zzccz"
         inkscape:highlight-color="#ffffff" /><path
         style="fill:#502d16;stroke:#000000;stroke-width:1.85208;stroke-dasharray:none;stroke-opacity:1"
         d="m 60.13124,110.82066 c 0.483311,5.1618 23.555459,-13.785699 50.31641,-13.789519 30.89308,-0.004 49.55999,19.251459 49.55682,13.915299 l 5.15719,-19.999799 c 5.49105,-9.73334 -35.98761,-16.231763 -54.8335,-16.245023 -17.027726,-0.012 -59.93447,6.572033 -55.479887,16.370803 z"
         id="path23"
         sodipodi:nodetypes="csccscc" /><path
         style="fill:#502d16;stroke:#000000;stroke-width:1.85208;stroke-dasharray:none;stroke-opacity:1"
         d="m 76.513723,79.139381 c 15.988819,-2.300883 18.411105,-4.033053 33.958337,-3.848403 18.37814,0.21827 18.20832,1.15958 32.56313,3.250203 l -0.29647,-7.860925 c 3.26683,-5.79072 -22.71883,-9.65687 -33.93095,-9.66476 -10.130425,-0.007 -34.348752,3.90994 -31.698556,9.73959 z"
         id="path24"
         sodipodi:nodetypes="csccscc" /><path
         style="fill:#dcb42c;stroke:#000000;stroke-width:1.85208;stroke-dasharray:none;stroke-opacity:1"
         d="m 94.818444,62.316086 c 7.618636,-0.542 8.221116,-1.2017 15.449796,-0.98161 8.5449,0.26014 8.5975,0.42765 15.4913,1.27762 l -0.0698,-3.65831 c 1.56923,-2.66479 -10.4821,-4.68705 -15.69625,-4.7875 -4.71112,-0.0904 -16.0077,1.52184 -14.825542,4.25581 z"
         id="path25"
         sodipodi:nodetypes="csccscc"
         inkscape:transform-center-x="0.064323573"
         inkscape:transform-center-y="0.24152185" /><path
         style="fill:#dcb42c;stroke:#000000;stroke-width:1.85208;stroke-dasharray:none;stroke-opacity:1"
         d="m 98.090251,56.451306 c 6.130409,-0.54239 6.615209,-1.20255 12.431829,-0.98231 6.87574,0.26033 6.91807,0.42795 12.46523,1.27853 l -1.97483,-3.47722 c -4.63591,0.372 -0.65401,-32.12845 -10.72475,-32.20911 -9.95966,-0.0798 -5.25541,31.26067 -11.275252,32.20911 z"
         id="path26"
         sodipodi:nodetypes="csccscc"
         inkscape:transform-center-x="0.051777433"
         inkscape:transform-center-y="0.24169127" /><circle
         style="fill:#000000;fill-opacity:1;stroke:#000000;stroke-width:0.571815;stroke-dasharray:none;stroke-opacity:1"
         id="path28"
         cx="92.408455"
         cy="127.92538"
         r="7.2039709" /><circle
         style="fill:#000000;fill-opacity:1;stroke:#000000;stroke-width:0.571815;stroke-dasharray:none;stroke-opacity:1"
         id="circle29"
         cx="92.408455"
         cy="127.92538"
         r="7.2039709" /><ellipse
         style="fill:#ffffff;fill-opacity:1;stroke:#000000;stroke-width:0.79375;stroke-dasharray:none;stroke-opacity:1"
         id="path29"
         cx="89.91674"
         cy="125.9874"
         rx="2.906997"
         ry="3.1838536" /><circle
         style="fill:#000000;fill-opacity:1;stroke:#000000;stroke-width:0.571815;stroke-dasharray:none;stroke-opacity:1"
         id="circle30"
         cx="128.12299"
         cy="127.37167"
         r="7.2039709" /><circle
         style="fill:#000000;fill-opacity:1;stroke:#000000;stroke-width:0.571815;stroke-dasharray:none;stroke-opacity:1"
         id="circle31"
         cx="128.12299"
         cy="127.37167"
         r="7.2039709" /><ellipse
         style="fill:#ffffff;fill-opacity:1;stroke:#000000;stroke-width:0.79375;stroke-dasharray:none;stroke-opacity:1"
         id="ellipse31"
         cx="125.63127"
         cy="125.43366"
         rx="2.906997"
         ry="3.1838536" /><rect
         style="fill:#000000;fill-opacity:1;stroke:#000000;stroke-width:0;stroke-dasharray:none;stroke-opacity:1"
         id="rect33"
         width="21"
         height="5"
         x="78.912437"
         y="146.31801"
         ry="2.5"
         transform="rotate(-16.727072)" /><rect
         style="fill:#000000;fill-opacity:1;stroke:#000000;stroke-width:0;stroke-dasharray:none;stroke-opacity:1"
         id="rect34"
         width="21"
         height="5"
         x="-132.74634"
         y="83.358498"
         ry="2.5"
         transform="matrix(-0.95768661,-0.28781305,-0.28781305,0.95768661,0,0)" /><path
         style="fill:#feb886;fill-opacity:1;stroke:#000000;stroke-width:0;stroke-dasharray:none;stroke-opacity:1"
         d="m 107.82407,164.69965 c -6.15879,-0.54254 -11.84205,-2.77435 -18.613725,-7.30957 -5.988814,-4.01092 -8.526073,-7.26493 -11.33413,-14.53591 -2.720213,-7.04353 -4.828657,-20.07661 -5.009375,-30.96481 l -0.06957,-4.19154 2.694369,-1.22345 c 9.851101,-4.47315 18.919936,-7.256043 27.510921,-8.442115 3.81897,-0.527246 12.67276,-0.446495 16.87526,0.153908 8.72902,1.247103 16.84646,3.679777 24.86615,7.452017 l 2.78658,1.31073 v 1.91997 c 0,5.74675 -1.18597,17.07211 -2.43272,23.23121 -2.13655,10.55481 -4.92588,16.77841 -9.60064,21.42112 -7.75927,7.70606 -18.3817,11.99695 -27.67312,11.17844 z M 95.839706,134.64928 c 2.720546,-1.35947 4.078308,-3.56616 4.096141,-6.65722 0.01196,-2.07084 -0.757367,-4.06251 -2.108568,-5.45885 -0.49058,-0.50696 -0.835019,-0.92037 -0.765421,-0.91868 0.0696,0.002 0.758135,0.19465 1.530083,0.42882 1.800679,0.54622 3.091569,0.18049 3.731609,-1.05721 0.52997,-1.02484 0.34013,-2.48353 -0.41177,-3.16399 -0.59447,-0.53798 -16.201997,-5.28646 -17.375797,-5.28646 -1.094848,0 -2.223325,1.06665 -2.41705,2.28463 -0.128207,0.80605 -0.01831,1.1772 0.547793,1.84997 0.59455,0.70658 1.392984,1.04225 4.976355,2.09206 2.347499,0.68774 4.213992,1.33812 4.147761,1.44528 -0.06623,0.10717 -0.617765,0.27438 -1.225632,0.37158 -1.567288,0.25062 -3.711567,1.79322 -4.679836,3.3667 -1.091684,1.77402 -1.357154,4.67976 -0.607004,6.644 1.637477,4.28767 6.423318,6.12717 10.561336,4.05937 z m 35.575524,-0.38059 c 1.43444,-0.69733 3.03548,-2.3137 3.66526,-3.70035 0.70745,-1.55767 0.71174,-4.71983 0.008,-6.26252 -0.28444,-0.62395 -0.85896,-1.53934 -1.27671,-2.03417 -0.91705,-1.08627 -3.37212,-2.3619 -4.54568,-2.3619 -1.48751,0 -0.46169,-0.468 3.79944,-1.73337 5.42966,-1.61238 6.50316,-2.64418 5.25742,-5.05317 -0.469,-0.90694 -0.94463,-1.15476 -2.2163,-1.15476 -0.84459,0 -15.66971,4.3198 -16.74969,4.88059 -0.70556,0.36636 -1.30514,1.8927 -1.12129,2.85445 0.0827,0.43244 0.48585,1.05222 0.89597,1.3773 0.63108,0.50021 0.99539,0.56536 2.37082,0.42398 l 1.62516,-0.16706 -0.97553,1.27802 c -2.23834,2.93238 -2.13549,6.98358 0.24598,9.68906 1.676,1.90403 3.49891,2.68528 5.98776,2.5662 1.14599,-0.0548 2.42652,-0.30947 3.02889,-0.6023 z"
         id="path34" /><path
         style="fill:#feb886;fill-opacity:1;stroke:#000000;stroke-width:0;stroke-dasharray:none;stroke-opacity:1"
         d="m 145.33252,138.72837 c -0.76627,-0.16727 -0.7577,0.0534 -0.10123,-2.60516 0.2953,-1.19591 0.61391,-2.51383 0.70802,-2.92872 0.15387,-0.67838 0.29492,-0.75247 1.40073,-0.73575 4.51906,0.0683 5.33655,-6.2873 0.96027,-7.46571 -0.71913,-0.19364 -1.05123,-0.42552 -0.95787,-0.6688 0.0786,-0.20482 0.23281,-1.40312 0.3427,-2.66289 l 0.1998,-2.29049 0.88637,0.16453 c 1.52909,0.28384 4.15567,1.84819 5.15899,3.07261 1.71415,2.09189 2.24773,3.63949 2.24773,6.51934 0,2.89305 -0.53301,4.42675 -2.27892,6.5574 -1.78377,2.17685 -5.87636,3.63092 -8.56659,3.04364 z"
         id="path35" /><path
         style="fill:#feb886;fill-opacity:1;stroke:#000000;stroke-width:0;stroke-dasharray:none;stroke-opacity:1"
         d="m 71.440868,138.89965 c -4.458253,-1.10582 -7.636282,-5.70836 -7.196143,-10.42171 0.389636,-4.17253 3.445005,-7.80169 7.302543,-8.67395 l 0.735322,-0.16626 0.25959,2.68111 0.259594,2.68112 -0.711298,0.16324 c -0.948712,0.21773 -1.816241,0.9666 -2.377837,2.05261 -1.266,2.44818 0.433263,5.45674 3.08202,5.45674 h 1.197171 l 0.724201,3.04889 c 0.398312,1.67689 0.701546,3.07248 0.673857,3.1013 -0.223668,0.23286 -3.094844,0.28878 -3.94902,0.0769 z"
         id="path36" /><path
         style="fill:#970a24;fill-opacity:1;stroke:#000000;stroke-width:0;stroke-dasharray:none;stroke-opacity:1"
         d="m 72.002727,132.44385 c -2.123298,-0.69147 -3.115384,-3.0994 -2.135542,-5.18326 0.316386,-0.67287 1.278786,-1.55304 1.947142,-1.78077 0.662086,-0.2256 1.14522,-0.25476 1.14522,-0.0691 0,0.24482 0.724387,4.95324 0.910582,5.91867 0.103204,0.5351 0.140923,1.01963 0.08382,1.07673 -0.191145,0.19115 -1.407901,0.21469 -1.951222,0.0378 z"
         id="path37" /><path
         style="fill:#970a24;fill-opacity:1;stroke:#000000;stroke-width:0;stroke-dasharray:none;stroke-opacity:1"
         d="m 146.6157,132.2117 c -0.28984,-0.0935 -0.48243,-0.22954 -0.47287,-0.3341 0.009,-0.097 0.1829,-1.16662 0.38672,-2.37691 0.20382,-1.21028 0.44181,-2.7159 0.52887,-3.34581 l 0.15827,-1.1453 0.63017,0.065 c 1.24929,0.12894 2.35902,0.95351 2.896,2.15185 0.34845,0.77761 0.34845,2.18158 0,2.95918 -0.72912,1.62712 -2.56683,2.52926 -4.12716,2.02605 z"
         id="path38" /><path
         style="fill:#fc9e11;fill-opacity:1;stroke:#000000;stroke-width:1.85208;stroke-dasharray:none;stroke-opacity:1"
         d="m 120.38559,55.879678 c -3.4077,-0.579636 -6.70436,-0.824886 -11.32353,-0.842394 -3.26359,-0.01238 -3.66534,0.01167 -6.34615,0.379688 -3.923698,0.538644 -3.920176,0.538313 -3.916721,0.370551 0.0016,-0.07903 0.131898,-0.585462 0.289489,-1.125392 0.257916,-0.883663 0.33103,-1.004522 0.732194,-1.210331 1.328418,-0.681524 2.184288,-2.922235 2.822458,-7.389421 0.13688,-0.958143 0.44736,-3.757916 0.68995,-6.221715 0.74971,-7.614202 1.1993,-10.407132 2.14327,-13.314473 1.21171,-3.731973 3.34089,-5.544364 5.70579,-4.856868 1.80456,0.524601 3.07546,2.133919 4.09589,5.186561 1.07649,3.220352 1.57499,6.371822 2.36886,14.975729 0.63255,6.855576 0.96023,8.973793 1.61697,10.452483 0.30805,0.693592 0.83395,1.276488 1.24467,1.379575 0.15648,0.03927 0.38157,0.287766 0.53312,0.588541 0.14426,0.286314 0.43472,0.814547 0.64546,1.173851 l 0.38317,0.65328 -0.34471,-0.01516 c -0.18959,-0.0083 -0.79267,-0.09137 -1.34018,-0.184496 z"
         id="path39" /><path
         style="fill:#fc9e11;fill-opacity:1;stroke:#000000;stroke-width:1.85208;stroke-dasharray:none;stroke-opacity:1"
         d="m 122.93649,61.797595 c -4.03141,-0.540909 -7.26602,-0.767244 -13.37669,-0.936001 -3.10397,-0.08572 -5.092,0.01834 -9.564689,0.500663 -1.514872,0.163359 -3.194098,0.334751 -3.731612,0.38087 l -0.977302,0.08385 0.07003,-0.478456 c 0.09661,-0.660078 0.230148,-2.420615 0.22697,-2.992517 -0.0036,-0.651111 0.204486,-0.919533 1.070906,-1.381332 0.853014,-0.454652 0.897779,-0.465169 0.897779,-0.210941 0,0.102658 0.07,0.186616 0.155543,0.186573 0.321808,-1.59e-4 4.684935,-0.516464 5.879525,-0.695748 2.04667,-0.307163 4.60822,-0.403789 7.67949,-0.289684 3.92093,0.145671 5.45308,0.289194 9.22747,0.864383 1.77055,0.269817 3.26024,0.465203 3.31041,0.434192 0.13564,-0.08383 1.18502,0.613277 1.41286,0.938575 0.10869,0.15517 0.15942,0.342997 0.11274,0.417393 -0.0467,0.0744 -0.0675,0.877205 -0.0461,1.784019 l 0.0387,1.648754 -0.35307,-0.01461 c -0.19419,-0.008 -1.10901,-0.116028 -2.03293,-0.239996 z"
         id="path40" /><path
         style="fill:none;fill-opacity:1;stroke:#000000;stroke-width:0.973517;stroke-dasharray:none;stroke-opacity:1"
         d="m 107.75444,221.2568 c -1.0851,-1.32357 -2.99482,-4.3772 -4.24381,-6.78586 l -2.2709,-4.37938 v -13.82373 c 0,-13.55934 -0.0145,-13.83228 -0.75728,-14.27108 -0.589067,-0.348 -0.955238,-0.30418 -1.64858,0.19728 l -0.891321,0.64465 -0.02584,9.19051 c -0.02974,10.56226 0.08206,10.51873 -2.833133,1.10275 -2.741956,-8.85632 -3.167386,-11.1443 -3.158136,-16.98431 0.0073,-4.48123 0.845084,-20.01724 1.079689,-20.01724 0.04316,0 0.80611,0.80322 1.695481,1.78492 2.221639,2.45229 3.395897,2.64126 7.71679,1.24187 6.15042,-1.99193 8.46557,-2.62239 9.6298,-2.62239 1.16424,0 3.47938,0.63046 9.62979,2.62239 4.32399,1.4004 5.49453,1.2111 7.72322,-1.24897 0.8929,-0.9856 1.66714,-1.7433 1.72056,-1.6838 0.0534,0.0596 0.38448,4.9315 0.73572,10.82667 0.59342,9.95968 0.59653,10.99353 0.044,14.60373 -0.56641,3.70057 -3.42147,13.89973 -4.97073,17.75697 l -0.72615,1.80792 -0.0258,-5.73364 c -0.0209,-4.64617 -0.13507,-5.85417 -0.60158,-6.36912 -0.6751,-0.74517 -1.05012,-0.78558 -2.01286,-0.21685 -0.67229,0.39715 -0.70862,0.94991 -0.70862,10.7829 v 10.36427 l -1.51843,3.06742 c -0.83514,1.68707 -2.02352,3.88629 -2.64086,4.88715 -1.32029,2.14056 -4.23108,5.66144 -4.68044,5.66144 -0.17233,0 -0.35585,-10.873 -0.40781,-24.16221 l -0.0945,-24.16221 -1.24382,-0.13109 c -0.74804,-0.0789 -1.36642,0.0824 -1.5514,0.40439 -0.16917,0.29451 -0.3101,11.2265 -0.31317,24.2933 -0.004,14.11383 -0.14185,23.75782 -0.34124,23.75782 -0.18459,0 -1.22341,-1.08292 -2.30852,-2.40647 z"
         id="path41" /><path
         style="fill:#000000;fill-opacity:1;stroke:#000000;stroke-width:1.9245;stroke-dasharray:none;stroke-opacity:1"
         d="m 107.98769,220.27888 c -0.82225,-1.06227 -2.47084,-3.69242 -3.66353,-5.84481 l -2.16855,-3.91343 -0.18317,-13.99099 c -0.14446,-11.0336 -0.28946,-14.13221 -0.68598,-14.65908 -0.6334,-0.84163 -2.199758,-0.86015 -3.262399,-0.0385 -0.789498,0.61039 -0.814743,0.85291 -0.831356,7.98668 l -0.01714,7.35716 -0.719167,-2.02195 c -1.364839,-3.83726 -3.272555,-11.33185 -3.64968,-14.33802 -0.359416,-2.86508 0.05051,-18.27997 0.579176,-21.77972 l 0.202478,-1.34036 1.445434,1.44145 c 1.256876,1.2534 1.687983,1.44144 3.304755,1.44144 1.034213,0 4.231029,-0.71781 7.203839,-1.61755 2.93948,-0.88965 5.86662,-1.61755 6.50476,-1.61755 0.63813,0 3.56527,0.7279 6.50476,1.61755 2.97279,0.89974 6.16961,1.61755 7.20382,1.61755 1.61571,0 2.04812,-0.18828 3.30039,-1.43709 l 1.44108,-1.43709 0.20157,1.74039 c 0.49335,4.25943 1.02553,16.88979 0.82145,19.49528 -0.24248,3.0956 -0.97336,6.30191 -3.09676,13.5852 l -1.35583,4.65047 -0.23774,-4.02729 c -0.20704,-3.5071 -0.34378,-4.12207 -1.05854,-4.76094 -0.51659,-0.46173 -1.10736,-0.63913 -1.59402,-0.47867 -1.84038,0.60682 -1.86046,0.72418 -2.05547,12.01035 l -0.18318,10.60135 -2.08116,3.87276 c -1.14465,2.13 -2.81256,4.76443 -3.70645,5.85428 l -1.62526,1.98155 -0.27037,-23.64738 c -0.1487,-13.00606 -0.29425,-23.67665 -0.32344,-23.71241 -0.0292,-0.0357 -0.63009,-0.18241 -1.33533,-0.32585 -0.85909,-0.17475 -1.51651,-0.0701 -1.99215,0.31733 -0.68385,0.55692 -0.71749,1.43713 -0.91589,23.96375 l -0.20596,23.38561 z"
         id="path43" /></g></g></svg>
